<svg width="48" height="48" viewBox="0 0 48 48" fill="none" xmlns="http://www.w3.org/2000/svg">
<path d="M32.06 19.76H27.05V18.516H32.062V19.762L32.06 19.76ZM23.714 24.866C24.038 25.366 24.198 25.974 24.198 26.688C24.198 27.428 24.018 28.088 23.646 28.674C23.3982 29.0857 23.067 29.4409 22.6736 29.7168C22.2802 29.9927 21.8334 30.1832 21.362 30.276C20.822 30.388 20.236 30.444 19.604 30.444H14V18H20.01C21.524 18.024 22.598 18.464 23.232 19.326C23.612 19.854 23.802 20.488 23.802 21.226C23.802 21.986 23.612 22.596 23.226 23.058C23.014 23.318 22.698 23.554 22.28 23.766C22.912 23.998 23.392 24.362 23.714 24.866ZM16.87 22.906H19.504C20.044 22.906 20.482 22.804 20.818 22.598C21.156 22.392 21.324 22.028 21.324 21.504C21.324 20.924 21.102 20.54 20.656 20.356C20.1795 20.2133 19.6833 20.1471 19.186 20.16H16.87V22.906ZM21.578 26.51C21.578 25.864 21.312 25.418 20.786 25.178C20.49 25.042 20.074 24.972 19.542 24.966H16.87V28.282H19.5C20.04 28.282 20.46 28.212 20.76 28.064C21.304 27.794 21.578 27.278 21.578 26.51ZM33.92 24.486C33.98 24.894 34.008 25.484 33.998 26.256H27.508C27.544 27.152 27.852 27.778 28.44 28.136C28.792 28.362 29.22 28.472 29.724 28.472C30.254 28.472 30.684 28.338 31.018 28.062C31.2169 27.8922 31.3794 27.6841 31.496 27.45H33.876C33.812 27.98 33.526 28.516 33.012 29.062C32.212 29.928 31.096 30.362 29.658 30.362C28.5151 30.3768 27.4035 29.9888 26.518 29.266C25.614 28.534 25.158 27.346 25.158 25.696C25.158 24.15 25.568 22.966 26.386 22.142C27.206 21.316 28.268 20.906 29.576 20.906C30.35 20.906 31.048 21.044 31.672 21.322C32.292 21.602 32.806 22.04 33.21 22.642C33.576 23.174 33.81 23.786 33.92 24.486ZM31.58 24.718C31.536 24.098 31.328 23.63 30.956 23.31C30.572 22.983 30.0801 22.8105 29.576 22.826C28.976 22.826 28.514 23 28.184 23.338C27.854 23.678 27.648 24.138 27.564 24.718H31.58Z" fill="#FAFAFA"/>
<path d="M12 8C10.9391 8 9.92172 8.42143 9.17157 9.17157C8.42143 9.92172 8 10.9391 8 12V36C8 37.0609 8.42143 38.0783 9.17157 38.8284C9.92172 39.5786 10.9391 40 12 40H36C37.0609 40 38.0783 39.5786 38.8284 38.8284C39.5786 38.0783 40 37.0609 40 36V12C40 10.9391 39.5786 9.92172 38.8284 9.17157C38.0783 8.42143 37.0609 8 36 8H12ZM12 4H36C38.1217 4 40.1566 4.84285 41.6569 6.34315C43.1571 7.84344 44 9.87827 44 12V36C44 38.1217 43.1571 40.1566 41.6569 41.6569C40.1566 43.1571 38.1217 44 36 44H12C9.87827 44 7.84344 43.1571 6.34315 41.6569C4.84285 40.1566 4 38.1217 4 36V12C4 9.87827 4.84285 7.84344 6.34315 6.34315C7.84344 4.84285 9.87827 4 12 4Z" fill="#FAFAFA"/>
</svg>
