<svg width="40" height="41" viewBox="0 0 40 41" fill="none" xmlns="http://www.w3.org/2000/svg">
<path d="M9.31097 13.7324H1.2809C0.924516 13.7324 0.635742 14.022 0.635742 14.379V40.2331C0.635742 40.5902 0.924516 40.8796 1.2809 40.8796H9.31097C9.66736 40.8796 9.95613 40.5902 9.95613 40.2331V14.379C9.95613 14.022 9.66736 13.7324 9.31097 13.7324Z" fill="#FAFAFA"/>
<path d="M5.29884 0.879883C2.37703 0.879883 0 3.25957 0 6.18459C0 9.1109 2.37703 11.4915 5.29884 11.4915C8.21832 11.4915 10.5934 9.11077 10.5934 6.18459C10.5935 3.25957 8.21832 0.879883 5.29884 0.879883Z" fill="#FAFAFA"/>
<path d="M29.7361 13.0898C26.5109 13.0898 24.1268 14.4794 22.6807 16.0582V14.379C22.6807 14.022 22.3919 13.7324 22.0355 13.7324H14.3454C13.989 13.7324 13.7002 14.022 13.7002 14.379V40.2331C13.7002 40.5902 13.989 40.8796 14.3454 40.8796H22.3579C22.7143 40.8796 23.003 40.5902 23.003 40.2331V27.4413C23.003 23.1308 24.1713 21.4515 27.1695 21.4515C30.4348 21.4515 30.6943 24.1436 30.6943 27.6631V40.2332C30.6943 40.5904 30.983 40.8798 31.3394 40.8798H39.3549C39.7113 40.8798 40.0001 40.5904 40.0001 40.2332V26.0518C40.0001 19.6422 38.7806 13.0898 29.7361 13.0898Z" fill="#FAFAFA"/>
</svg>
