<svg width="40" height="40" viewBox="0 0 40 40" fill="none" xmlns="http://www.w3.org/2000/svg">
<g clip-path="url(#clip0_174_27)">
<path d="M36.875 0H3.125C1.39844 0 0 1.39844 0 3.125V36.875C0 38.6016 1.39844 40 3.125 40H36.875C38.6016 40 40 38.6016 40 36.875V3.125C40 1.39844 38.6016 0 36.875 0ZM37.6562 36.875C37.6562 37.3047 37.3047 37.6562 36.875 37.6562H3.125C2.69531 37.6562 2.34375 37.3047 2.34375 36.875V3.125C2.34375 2.69531 2.69531 2.34375 3.125 2.34375H36.875C37.3047 2.34375 37.6562 2.69531 37.6562 3.125V36.875Z" fill="#FAFAFA"/>
<path d="M14.4062 15.8906H10.5078V28.3672H14.4062V15.8906Z" fill="#FAFAFA"/>
<path d="M25.0547 15.7734C22.8203 15.7734 21.4219 16.9922 21.1641 17.8516V15.8906H16.7812C16.8359 16.9297 16.7812 28.3672 16.7812 28.3672H21.1641V21.625C21.1641 21.2422 21.1484 20.8672 21.2578 20.6016C21.5547 19.8516 22.2031 19.0703 23.3672 19.0703C24.8906 19.0703 25.5781 20.2266 25.5781 21.9141V28.3672H30V21.4297C30 17.5703 27.8281 15.7734 25.0547 15.7734Z" fill="#FAFAFA"/>
<path d="M12.375 10C10.9375 10 9.99219 10.9297 9.99219 12.1641C9.99219 13.375 10.9062 14.3281 12.3203 14.3281H12.3516C13.8203 14.3281 14.7344 13.3672 14.7266 12.1641C14.6953 10.9297 13.8125 10 12.375 10Z" fill="#FAFAFA"/>
</g>
<defs>
<clipPath id="clip0_174_27">
<rect width="40" height="40" fill="white"/>
</clipPath>
</defs>
</svg>
