<svg width="40" height="40" viewBox="0 0 40 40" fill="none" xmlns="http://www.w3.org/2000/svg">
<path d="M3.63636 5.55556V2.20667C3.63969 1.62306 3.83073 1.06448 4.16821 0.651595C4.50568 0.238707 4.96251 0.00465478 5.44 0H38.1964C39.1927 0 40 0.988889 40 2.20667V37.7933C39.9967 38.3769 39.8056 38.9355 39.4682 39.3484C39.1307 39.7613 38.6739 39.9953 38.1964 40H5.44C4.96148 39.9994 4.50272 39.7667 4.16453 39.3529C3.82633 38.9391 3.63636 38.3782 3.63636 37.7933V35.5556H36.3636V9.55556L21.8182 25.5556L3.63636 5.55556ZM0 15.5556H9.09091V20H0V15.5556ZM0 26.6667H14.5455V31.1111H0V26.6667Z" fill="#FAFAFA"/>
</svg>
