<svg width="40" height="40" viewBox="0 0 40 40" fill="none" xmlns="http://www.w3.org/2000/svg">
<g clip-path="url(#clip0_215_352)">
<path d="M39.5705 5.80352C38.4273 2.33234 35.2007 0 31.5447 0H8.45531C4.79422 0 1.56883 2.3343 0.429375 5.81172C0.144844 6.66477 0 7.55461 0 8.45531V31.5447C0 31.6502 0 31.7549 0.00640625 31.8724C0.0470312 33.0151 0.320156 34.1266 0.815625 35.1727C2.21922 38.1053 5.21844 40 8.45531 40H31.5447C34.7294 40 37.6842 38.1631 39.1158 35.3087L39.1794 35.1721C39.6748 34.14 39.9466 33.0323 39.9873 31.8959L39.9911 31.8261C40.0013 31.7321 40 31.638 40 31.5447V8.45531C39.9999 7.54953 39.8564 6.65773 39.5705 5.80352ZM2.60164 11.4933L13.1796 20.7152L2.60164 29.9295V11.4933ZM37.2523 32.855C36.6362 35.5297 34.2898 37.3984 31.5447 37.3984H8.45531C5.70508 37.3984 3.3575 35.5266 2.74773 32.8462L2.66258 32.467L14.6609 22.0052L16.4482 23.5619C17.4276 24.4188 18.6776 24.8906 20.0203 24.8906C21.3148 24.8906 22.5661 24.4187 23.5467 23.5613L25.3341 22.0051L37.3399 32.4751L37.2523 32.855ZM37.3984 29.9377L26.8152 20.7088L37.3984 11.4876V29.9377ZM37.3984 8.90055L22.2598 22.0985C21.6323 22.6409 20.827 22.9395 19.9936 22.9395C19.1641 22.9395 18.3625 22.6409 17.7325 22.0966L2.60164 8.90055V8.45523C2.60164 5.22734 5.22742 2.60156 8.45531 2.60156H31.5447C34.7726 2.60156 37.3984 5.22734 37.3984 8.45523V8.90055Z" fill="#FAFAFA"/>
</g>
<defs>
<clipPath id="clip0_215_352">
<rect width="40" height="40" fill="white"/>
</clipPath>
</defs>
</svg>
